<svg width="36" height="36" viewBox="0 0 36 36" fill="none" xmlns="http://www.w3.org/2000/svg">
<circle cx="18" cy="18" r="18" fill="white"/>
<g clip-path="url(#clip0_16215_2798)">
<path d="M18 23.25C18.6894 23.25 19.3721 23.1142 20.0091 22.8504C20.646 22.5865 21.2248 22.1998 21.7123 21.7123C22.1998 21.2248 22.5865 20.646 22.8504 20.0091C23.1142 19.3721 23.25 18.6894 23.25 18C23.25 17.3106 23.1142 16.6279 22.8504 15.9909C22.5865 15.354 22.1998 14.7752 21.7123 14.2877C21.2248 13.8002 20.646 13.4135 20.0091 13.1496C19.3721 12.8858 18.6894 12.75 18 12.75C16.6076 12.75 15.2723 13.3031 14.2877 14.2877C13.3031 15.2723 12.75 16.6076 12.75 18C12.75 19.3924 13.3031 20.7277 14.2877 21.7123C15.2723 22.6969 16.6076 23.25 18 23.25ZM18 26.22C17.5875 26.22 17.25 25.9125 17.25 25.5V25.44C17.25 25.0275 17.5875 24.69 18 24.69C18.4125 24.69 18.75 25.0275 18.75 25.44C18.75 25.8525 18.4125 26.22 18 26.22ZM23.355 24.105C23.16 24.105 22.9725 24.03 22.8225 23.8875L22.725 23.79C22.6556 23.7206 22.6005 23.6381 22.5629 23.5474C22.5253 23.4567 22.506 23.3594 22.506 23.2612C22.506 23.1631 22.5253 23.0658 22.5629 22.9751C22.6005 22.8844 22.6556 22.8019 22.725 22.7325C22.7944 22.6631 22.8769 22.608 22.9676 22.5704C23.0583 22.5328 23.1556 22.5135 23.2537 22.5135C23.3519 22.5135 23.4492 22.5328 23.5399 22.5704C23.6306 22.608 23.7131 22.6631 23.7825 22.7325L23.88 22.83C23.9842 22.9343 24.0552 23.0671 24.0841 23.2116C24.113 23.3562 24.0985 23.5061 24.0423 23.6424C23.9862 23.7788 23.891 23.8954 23.7687 23.9777C23.6464 24.06 23.5024 24.1043 23.355 24.105ZM12.645 24.105C12.45 24.105 12.2625 24.03 12.1125 23.8875C12.043 23.8181 11.9878 23.7357 11.9502 23.645C11.9125 23.5542 11.8932 23.457 11.8932 23.3588C11.8932 23.2605 11.9125 23.1633 11.9502 23.0725C11.9878 22.9818 12.043 22.8994 12.1125 22.83L12.21 22.7325C12.2794 22.6631 12.3619 22.608 12.4526 22.5704C12.5433 22.5328 12.6406 22.5135 12.7387 22.5135C12.8369 22.5135 12.9342 22.5328 13.0249 22.5704C13.1156 22.608 13.1981 22.6631 13.2675 22.7325C13.3369 22.8019 13.392 22.8844 13.4296 22.9751C13.4672 23.0658 13.4865 23.1631 13.4865 23.2612C13.4865 23.3594 13.4672 23.4567 13.4296 23.5474C13.392 23.6381 13.3369 23.7206 13.2675 23.79L13.17 23.8875C13.0275 24.03 12.8325 24.105 12.645 24.105ZM25.5 18.75H25.44C25.0275 18.75 24.69 18.4125 24.69 18C24.69 17.5875 25.0275 17.25 25.44 17.25C25.8525 17.25 26.22 17.5875 26.22 18C26.22 18.4125 25.9125 18.75 25.5 18.75ZM10.56 18.75H10.5C10.0875 18.75 9.75 18.4125 9.75 18C9.75 17.5875 10.0875 17.25 10.5 17.25C10.9125 17.25 11.28 17.5875 11.28 18C11.28 18.4125 10.9725 18.75 10.56 18.75ZM23.2575 13.4925C23.0625 13.4925 22.875 13.4175 22.725 13.275C22.6555 13.2056 22.6003 13.1232 22.5627 13.0325C22.525 12.9417 22.5057 12.8445 22.5057 12.7462C22.5057 12.648 22.525 12.5508 22.5627 12.46C22.6003 12.3693 22.6555 12.2869 22.725 12.2175L22.8225 12.12C22.8919 12.0506 22.9744 11.9955 23.0651 11.9579C23.1558 11.9203 23.2531 11.901 23.3512 11.901C23.4494 11.901 23.5467 11.9203 23.6374 11.9579C23.7281 11.9955 23.8106 12.0506 23.88 12.12C23.9494 12.1894 24.0045 12.2719 24.0421 12.3626C24.0797 12.4533 24.099 12.5506 24.099 12.6487C24.099 12.7469 24.0797 12.8442 24.0421 12.9349C24.0045 13.0256 23.9494 13.1081 23.88 13.1775L23.7825 13.275C23.64 13.4175 23.4525 13.4925 23.2575 13.4925ZM12.7425 13.4925C12.5475 13.4925 12.36 13.4175 12.21 13.275L12.1125 13.17C12.0431 13.1006 11.988 13.0181 11.9504 12.9274C11.9128 12.8367 11.8935 12.7394 11.8935 12.6413C11.8935 12.5431 11.9128 12.4458 11.9504 12.3551C11.988 12.2644 12.0431 12.1819 12.1125 12.1125C12.1819 12.0431 12.2644 11.988 12.3551 11.9504C12.4458 11.9128 12.5431 11.8935 12.6413 11.8935C12.7394 11.8935 12.8367 11.9128 12.9274 11.9504C13.0181 11.988 13.1006 12.0431 13.17 12.1125L13.2675 12.21C13.56 12.5025 13.56 12.975 13.2675 13.2675C13.125 13.4175 12.93 13.4925 12.7425 13.4925ZM18 11.28C17.5875 11.28 17.25 10.9725 17.25 10.56V10.5C17.25 10.0875 17.5875 9.75 18 9.75C18.4125 9.75 18.75 10.0875 18.75 10.5C18.75 10.9125 18.4125 11.28 18 11.28Z" fill="#00ADB5"/>
</g>
<defs>
<clipPath id="clip0_16215_2798">
<rect width="18" height="18" fill="white" transform="translate(9 9)"/>
</clipPath>
</defs>
</svg>
